<?xml version="1.0" encoding="UTF-8" standalone="no"?>
<!-- Created with Inkscape (http://www.inkscape.org/) -->

<svg
   xmlns:dc="http://purl.org/dc/elements/1.1/"
   xmlns:cc="http://creativecommons.org/ns#"
   xmlns:rdf="http://www.w3.org/1999/02/22-rdf-syntax-ns#"
   xmlns:svg="http://www.w3.org/2000/svg"
   xmlns="http://www.w3.org/2000/svg"
   xmlns:xlink="http://www.w3.org/1999/xlink"
   xmlns:sodipodi="http://sodipodi.sourceforge.net/DTD/sodipodi-0.dtd"
   xmlns:inkscape="http://www.inkscape.org/namespaces/inkscape"
   width="744.09448819"
   height="1052.3622047"
   id="svg2"
   version="1.1"
   inkscape:version="0.48.4 r9939"
   sodipodi:docname="New document 1">
  <defs
     id="defs4">
	
	
	
<radialGradient
   inkscape:collect="always"
   xlink:href="#SVGID_1_"
   id="radialGradient3237"
   gradientUnits="userSpaceOnUse"
   gradientTransform="translate(614.4004,-728.4014)"
   cx="-464.9202"
   cy="873.18951"
   r="255.5941" />

		
		
		
	<radialGradient
   inkscape:collect="always"
   xlink:href="#SVGID_1_"
   id="radialGradient3276"
   gradientUnits="userSpaceOnUse"
   gradientTransform="translate(614.4004,-728.4014)"
   cx="-464.9202"
   cy="873.18951"
   r="255.5941" />

			
			
			
			
		<radialGradient
   inkscape:collect="always"
   xlink:href="#SVGID_1_"
   id="radialGradient3292"
   gradientUnits="userSpaceOnUse"
   gradientTransform="translate(614.4004,-728.4014)"
   cx="-464.9202"
   cy="873.18951"
   r="255.5941" />

				
				
			
		
		
		
		
	
			
			
			
		
					
				
					
				
				
			
			
			
			
		
				
			</defs>
  <sodipodi:namedview
     id="base"
     pagecolor="#ffffff"
     bordercolor="#666666"
     borderopacity="1.0"
     inkscape:pageopacity="0.0"
     inkscape:pageshadow="2"
     inkscape:zoom="1.979899"
     inkscape:cx="409.72064"
     inkscape:cy="570.83506"
     inkscape:document-units="px"
     inkscape:current-layer="layer1"
     showgrid="false"
     inkscape:window-width="1920"
     inkscape:window-height="1018"
     inkscape:window-x="1912"
     inkscape:window-y="-8"
     inkscape:window-maximized="1" />
  <metadata
     id="metadata7">
    <rdf:RDF>
      <cc:Work
         rdf:about="">
        <dc:format>image/svg+xml</dc:format>
        <dc:type
           rdf:resource="http://purl.org/dc/dcmitype/StillImage" />
        <dc:title></dc:title>
      </cc:Work>
    </rdf:RDF>
  </metadata>
  <g
     inkscape:label="Layer 1"
     inkscape:groupmode="layer"
     id="layer1">
    <rect
       style="opacity:0.85;fill:#000000;fill-opacity:1;stroke:none"
       id="rect2991"
       width="675.79205"
       height="194.45438"
       x="53.033009"
       y="392.22751"
       ry="12.706271" />
    <text
       xml:space="preserve"
       style="font-size:144px;font-style:normal;font-variant:normal;font-weight:normal;font-stretch:normal;line-height:125%;letter-spacing:0px;word-spacing:0px;fill:#00ffff;fill-opacity:1;stroke:none;font-family:TR2N;-inkscape-font-specification:TR2N"
       x="71.428574"
       y="543.79077"
       id="text2985"
       sodipodi:linespacing="125%"><tspan
         sodipodi:role="line"
         id="tspan2987"
         x="71.428574"
         y="543.79077">TRON CI</tspan></text>
    <path
       id="path2994"
       d="m 347.49523,526.25401 c -12.37086,22.64668 -45.27763,14.00496 -45.27763,14.00496 -21.52529,-7.74779 -17.56692,-24.43454 -17.56692,-24.43454 9.15443,-16.68674 17.3195,-3.87371 17.3195,-3.87371 1.48481,3.57573 -1.4848,3.57573 -1.4848,3.57573 -9.15474,-5.36359 -7.42252,3.27776 -7.42252,3.27776 7.66993,14.00495 26.47363,-6.25753 26.47363,-6.25753 18.30886,-15.19687 28.35497,2.85296 28.35497,2.85296 l 1.10379,-1.0651 c 0,0 9.15474,-16.98473 27.46361,-1.78786 0,0 18.80339,20.26284 26.47332,6.25753 0,0 1.73253,-8.64135 -7.42221,-3.27776 0,0 -2.96961,0 -1.48481,-3.57573 0,0 8.16507,-12.81266 17.3192,3.87371 0,0 3.95868,16.68675 -17.56661,24.43454 0,0 -32.90708,8.64172 -45.27794,-14.00496"
       inkscape:connector-curvature="0"
       style="fill:#552200" />
    <g
       id="g4092"
       transform="matrix(0.30841981,0,0,0.30841981,235.89747,203.04403)">
      <g
         id="g4108"
         transform="matrix(0.99550238,0,0,1,7.2603591,0)">
        <path
           style="fill:#ffcc00;stroke:#d4aa00;stroke-width:5.15910006"
           inkscape:connector-curvature="0"
           d="m 406.84581,925.21657 c 0,0 -30.974,16.656 -78.453,33.211 -28.673,9.98 -79.612,-6.867 -106.139,-13.916 -26.562,-7.023 -72.464,-21.604 -59.728,-34.365 12.735,-12.73 49.334,-39.871 49.334,-39.871 0,0 -34.849,57.576 194.986,54.941 z"
           id="path3028" />
        <path
           id="path3032"
           d="m 194.90081,883.34357 c 0,24.284 72.624,43.959 162.259,43.959 89.613,0 162.264,-19.67 162.264,-43.959 -18.702,-13.548 -15.979,-24.953 -15.979,-24.953 h -293.324 c 0.011,0 2.601,11.406 -15.22,24.953 z"
           inkscape:connector-curvature="0"
           style="fill:#ffcc00;stroke:#d4aa00;stroke-width:5.15910006" />
        <path
           style="fill:#ffcc00;stroke:#d4aa00"
           inkscape:connector-curvature="0"
           d="m 485.60081,771.45757 c -3.628,-8.272 -17.692,-36.851 -46.26,-56.997 -51.798,-36.531 -116.034,-29.554 -153.81,-7.628 -25.539,14.849 -43.112,33.981 -57.032,62.05 -3.406,6.862 -9.759,21.504 -14.082,42.462 -3.748,18.156 -4.115,29.623 -4.729,48.627 0.021,15.9 30.219,30.264 82.218,37.223 72.76,9.769 160.69,1.279 196.371,-18.903 10.213,-5.772 15.044,-11.892 15.022,-17.896 -0.78,-24.546 -1.692,-52.402 -17.698,-88.938 z"
           id="path3038" />
        <path
           style="fill:#ffcc00;stroke:#d4aa00;stroke-width:5.15910006"
           inkscape:connector-curvature="0"
           d="m 485.60081,771.45757 c -3.628,-8.272 -17.692,-36.851 -46.26,-56.997 -51.798,-36.531 -116.034,-29.554 -153.81,-7.628 -25.539,14.849 -43.112,33.981 -57.032,62.05 -3.406,6.862 -9.759,21.504 -14.082,42.462 -3.748,18.156 -4.115,29.623 -4.729,48.627 0.021,15.9 30.219,30.264 82.218,37.223 72.76,9.769 160.69,1.279 196.371,-18.903 10.213,-5.772 15.044,-11.892 15.022,-17.896 -0.78,-24.546 -1.692,-52.402 -17.698,-88.938 z"
           id="path3042" />
        <g
           id="g3057"
           transform="translate(139.60881,611.78857)"
           style="fill:#ffcc00;stroke:#d4aa00">
				<g
   id="g3059"
   style="fill:#ffcc00;stroke:#d4aa00">
					<path
   style="fill:#ffcc00;stroke:#d4aa00"
   inkscape:connector-curvature="0"
   d="M 292.967,97.194 C 183.995,27.707 73.4,170.418 76.861,262.057 l -10.137,4.09 C 66.729,166.256 174.974,19.021 292.967,97.194"
   id="path3061" />

				</g>

				<polygon
   style="fill:#ffcc00;stroke:#d4aa00"
   points="66.729,266.146 76.865,262.057 61.197,281.15 "
   id="polygon3063" />

			</g>
        <path
           style="fill:#ffcc00;stroke:#d4aa00;stroke-width:5.15910006;stroke-linecap:round;stroke-linejoin:round"
           inkscape:connector-curvature="0"
           d="m 248.71881,892.23857 0,0 c -0.005,-90.409 53.949,-231.274 151.653,-199.293 -104.773,-35.459 -194.014,94.259 -194.014,184.97 l -5.532,15.003 42.381,14.294 5.512,-14.974 0,0 z"
           id="path3065" />
        <g
           id="g3067"
           transform="translate(139.60881,611.78857)"
           style="fill:#ffcc00;stroke:#d4aa00">
				<g
   id="g3069"
   style="fill:#ffcc00;stroke:#d4aa00">
					<path
   style="fill:#ffcc00;stroke:#d4aa00"
   inkscape:connector-curvature="0"
   d="m 109.105,280.45 0,0 0,0 -5.526,15.004 24.849,-17.417 C 124.95,186.375 183.992,27.712 292.974,97.173 174.974,19.021 109.105,180.544 109.105,280.45 z"
   id="path3071" />

				</g>

				<g
   id="g3073"
   style="fill:#ffcc00;stroke:#d4aa00">
					<path
   style="fill:#ffcc00;stroke:#d4aa00;stroke-width:5.15910006;stroke-linecap:round;stroke-linejoin:round"
   inkscape:connector-curvature="0"
   d="m 109.105,280.45 0,0 0,0 -5.526,15.004 24.849,-17.417 C 124.95,186.375 183.992,27.712 292.974,97.173 174.974,19.021 109.105,180.544 109.105,280.45 z"
   id="path3075" />

				</g>

			</g>
      </g>
    </g>
  </g>
</svg>
